<mxfile host="65bd71144e">
    <diagram id="acdZciLqs1A8ZPA4_1PT" name="第 3 页">
        <mxGraphModel dx="1194" dy="514" grid="1" gridSize="10" guides="1" tooltips="1" connect="1" arrows="1" fold="1" page="1" pageScale="1" pageWidth="827" pageHeight="1169" math="0" shadow="0">
            <root>
                <mxCell id="0"/>
                <mxCell id="1" parent="0"/>
                <mxCell id="Wo9LFcfpVEYGAcbypB25-11" style="edgeStyle=none;html=1;entryX=0.5;entryY=0;entryDx=0;entryDy=0;" edge="1" parent="1" source="Wo9LFcfpVEYGAcbypB25-1" target="Wo9LFcfpVEYGAcbypB25-9">
                    <mxGeometry relative="1" as="geometry"/>
                </mxCell>
                <mxCell id="Wo9LFcfpVEYGAcbypB25-1" value="用户登录" style="rounded=1;whiteSpace=wrap;html=1;" vertex="1" parent="1">
                    <mxGeometry x="364" y="30" width="100" height="40" as="geometry"/>
                </mxCell>
                <mxCell id="Wo9LFcfpVEYGAcbypB25-15" style="edgeStyle=none;html=1;entryX=0.5;entryY=0;entryDx=0;entryDy=0;" edge="1" parent="1" source="Wo9LFcfpVEYGAcbypB25-2" target="Wo9LFcfpVEYGAcbypB25-8">
                    <mxGeometry relative="1" as="geometry">
                        <Array as="points">
                            <mxPoint x="200" y="230"/>
                        </Array>
                    </mxGeometry>
                </mxCell>
                <mxCell id="Wo9LFcfpVEYGAcbypB25-16" style="edgeStyle=none;html=1;entryX=0.5;entryY=0;entryDx=0;entryDy=0;" edge="1" parent="1" source="Wo9LFcfpVEYGAcbypB25-2" target="Wo9LFcfpVEYGAcbypB25-5">
                    <mxGeometry relative="1" as="geometry"/>
                </mxCell>
                <mxCell id="Wo9LFcfpVEYGAcbypB25-17" style="edgeStyle=none;html=1;entryX=0.5;entryY=0;entryDx=0;entryDy=0;" edge="1" parent="1" source="Wo9LFcfpVEYGAcbypB25-2" target="Wo9LFcfpVEYGAcbypB25-4">
                    <mxGeometry relative="1" as="geometry">
                        <Array as="points">
                            <mxPoint x="630" y="230"/>
                        </Array>
                    </mxGeometry>
                </mxCell>
                <mxCell id="Wo9LFcfpVEYGAcbypB25-2" value="后台管理" style="rounded=1;whiteSpace=wrap;html=1;" vertex="1" parent="1">
                    <mxGeometry x="364" y="210" width="100" height="40" as="geometry"/>
                </mxCell>
                <mxCell id="Wo9LFcfpVEYGAcbypB25-3" value="退出/不渲染" style="rounded=1;whiteSpace=wrap;html=1;" vertex="1" parent="1">
                    <mxGeometry x="540" y="115" width="100" height="40" as="geometry"/>
                </mxCell>
                <mxCell id="Wo9LFcfpVEYGAcbypB25-27" style="edgeStyle=none;html=1;entryX=0.5;entryY=0;entryDx=0;entryDy=0;" edge="1" parent="1" source="Wo9LFcfpVEYGAcbypB25-4" target="Wo9LFcfpVEYGAcbypB25-21">
                    <mxGeometry relative="1" as="geometry"/>
                </mxCell>
                <mxCell id="Wo9LFcfpVEYGAcbypB25-28" style="edgeStyle=none;html=1;entryX=0.5;entryY=0;entryDx=0;entryDy=0;" edge="1" parent="1" source="Wo9LFcfpVEYGAcbypB25-4" target="Wo9LFcfpVEYGAcbypB25-20">
                    <mxGeometry relative="1" as="geometry"/>
                </mxCell>
                <mxCell id="Wo9LFcfpVEYGAcbypB25-4" value="演员管理" style="rounded=1;whiteSpace=wrap;html=1;" vertex="1" parent="1">
                    <mxGeometry x="580" y="350" width="100" height="40" as="geometry"/>
                </mxCell>
                <mxCell id="Wo9LFcfpVEYGAcbypB25-25" style="edgeStyle=none;html=1;entryX=0.5;entryY=0;entryDx=0;entryDy=0;" edge="1" parent="1" source="Wo9LFcfpVEYGAcbypB25-5" target="Wo9LFcfpVEYGAcbypB25-19">
                    <mxGeometry relative="1" as="geometry"/>
                </mxCell>
                <mxCell id="Wo9LFcfpVEYGAcbypB25-26" style="edgeStyle=none;html=1;entryX=0.5;entryY=0;entryDx=0;entryDy=0;" edge="1" parent="1" source="Wo9LFcfpVEYGAcbypB25-5" target="Wo9LFcfpVEYGAcbypB25-18">
                    <mxGeometry relative="1" as="geometry"/>
                </mxCell>
                <mxCell id="Wo9LFcfpVEYGAcbypB25-5" value="电影管理" style="rounded=1;whiteSpace=wrap;html=1;" vertex="1" parent="1">
                    <mxGeometry x="364" y="350" width="100" height="40" as="geometry"/>
                </mxCell>
                <mxCell id="Wo9LFcfpVEYGAcbypB25-6" value="上传图片" style="rounded=1;whiteSpace=wrap;html=1;" vertex="1" parent="1">
                    <mxGeometry x="200" y="460" width="100" height="40" as="geometry"/>
                </mxCell>
                <mxCell id="Wo9LFcfpVEYGAcbypB25-7" value="修改基本信息" style="rounded=1;whiteSpace=wrap;html=1;" vertex="1" parent="1">
                    <mxGeometry x="100" y="460" width="100" height="40" as="geometry"/>
                </mxCell>
                <mxCell id="Wo9LFcfpVEYGAcbypB25-22" style="edgeStyle=none;html=1;entryX=0.5;entryY=0;entryDx=0;entryDy=0;" edge="1" parent="1" source="Wo9LFcfpVEYGAcbypB25-8" target="Wo9LFcfpVEYGAcbypB25-7">
                    <mxGeometry relative="1" as="geometry"/>
                </mxCell>
                <mxCell id="Wo9LFcfpVEYGAcbypB25-23" style="edgeStyle=none;html=1;entryX=0.5;entryY=0;entryDx=0;entryDy=0;" edge="1" parent="1" source="Wo9LFcfpVEYGAcbypB25-8" target="Wo9LFcfpVEYGAcbypB25-6">
                    <mxGeometry relative="1" as="geometry"/>
                </mxCell>
                <mxCell id="Wo9LFcfpVEYGAcbypB25-8" value="用户管理" style="rounded=1;whiteSpace=wrap;html=1;" vertex="1" parent="1">
                    <mxGeometry x="150" y="350" width="100" height="40" as="geometry"/>
                </mxCell>
                <mxCell id="Wo9LFcfpVEYGAcbypB25-12" style="edgeStyle=none;html=1;entryX=0;entryY=0.5;entryDx=0;entryDy=0;" edge="1" parent="1" source="Wo9LFcfpVEYGAcbypB25-9" target="Wo9LFcfpVEYGAcbypB25-3">
                    <mxGeometry relative="1" as="geometry"/>
                </mxCell>
                <mxCell id="Wo9LFcfpVEYGAcbypB25-30" value="普通用户" style="edgeLabel;html=1;align=center;verticalAlign=middle;resizable=0;points=[];" vertex="1" connectable="0" parent="Wo9LFcfpVEYGAcbypB25-12">
                    <mxGeometry x="-0.1739" y="-1" relative="1" as="geometry">
                        <mxPoint as="offset"/>
                    </mxGeometry>
                </mxCell>
                <mxCell id="Wo9LFcfpVEYGAcbypB25-13" style="edgeStyle=none;html=1;entryX=0.5;entryY=0;entryDx=0;entryDy=0;" edge="1" parent="1" source="Wo9LFcfpVEYGAcbypB25-9" target="Wo9LFcfpVEYGAcbypB25-2">
                    <mxGeometry relative="1" as="geometry"/>
                </mxCell>
                <mxCell id="Wo9LFcfpVEYGAcbypB25-29" value="是管理员" style="edgeLabel;html=1;align=center;verticalAlign=middle;resizable=0;points=[];" vertex="1" connectable="0" parent="Wo9LFcfpVEYGAcbypB25-13">
                    <mxGeometry x="-0.0133" y="3" relative="1" as="geometry">
                        <mxPoint as="offset"/>
                    </mxGeometry>
                </mxCell>
                <mxCell id="Wo9LFcfpVEYGAcbypB25-9" value="验证身份" style="rhombus;whiteSpace=wrap;html=1;" vertex="1" parent="1">
                    <mxGeometry x="369" y="110" width="90" height="50" as="geometry"/>
                </mxCell>
                <mxCell id="Wo9LFcfpVEYGAcbypB25-18" value="上传图片" style="rounded=1;whiteSpace=wrap;html=1;" vertex="1" parent="1">
                    <mxGeometry x="414" y="460" width="100" height="40" as="geometry"/>
                </mxCell>
                <mxCell id="Wo9LFcfpVEYGAcbypB25-19" value="修改基本信息" style="rounded=1;whiteSpace=wrap;html=1;" vertex="1" parent="1">
                    <mxGeometry x="314" y="460" width="100" height="40" as="geometry"/>
                </mxCell>
                <mxCell id="Wo9LFcfpVEYGAcbypB25-20" value="上传图片" style="rounded=1;whiteSpace=wrap;html=1;" vertex="1" parent="1">
                    <mxGeometry x="630" y="460" width="100" height="40" as="geometry"/>
                </mxCell>
                <mxCell id="Wo9LFcfpVEYGAcbypB25-21" value="修改基本信息" style="rounded=1;whiteSpace=wrap;html=1;" vertex="1" parent="1">
                    <mxGeometry x="530" y="460" width="100" height="40" as="geometry"/>
                </mxCell>
            </root>
        </mxGraphModel>
    </diagram>
    <diagram id="SPuYZMlFpMkYDK8aYPEc" name="第 2 页">
        <mxGraphModel dx="1194" dy="514" grid="1" gridSize="10" guides="1" tooltips="1" connect="1" arrows="1" fold="1" page="1" pageScale="1" pageWidth="827" pageHeight="1169" math="0" shadow="0">
            <root>
                <mxCell id="0"/>
                <mxCell id="1" parent="0"/>
                <mxCell id="DZlkJIBb8mdQVSwOGgJA-11" style="edgeStyle=none;html=1;entryX=0.5;entryY=0;entryDx=0;entryDy=0;" edge="1" parent="1" source="DZlkJIBb8mdQVSwOGgJA-1" target="DZlkJIBb8mdQVSwOGgJA-9">
                    <mxGeometry relative="1" as="geometry"/>
                </mxCell>
                <mxCell id="DZlkJIBb8mdQVSwOGgJA-1" value="用户登录" style="rounded=1;whiteSpace=wrap;html=1;" vertex="1" parent="1">
                    <mxGeometry x="364" y="30" width="100" height="40" as="geometry"/>
                </mxCell>
                <mxCell id="DZlkJIBb8mdQVSwOGgJA-4" value="返回前端token" style="rounded=1;whiteSpace=wrap;html=1;" vertex="1" parent="1">
                    <mxGeometry x="364" y="390" width="100" height="40" as="geometry"/>
                </mxCell>
                <mxCell id="DZlkJIBb8mdQVSwOGgJA-14" style="edgeStyle=none;html=1;entryX=0.5;entryY=0;entryDx=0;entryDy=0;" edge="1" parent="1" source="DZlkJIBb8mdQVSwOGgJA-5" target="DZlkJIBb8mdQVSwOGgJA-4">
                    <mxGeometry relative="1" as="geometry"/>
                </mxCell>
                <mxCell id="DZlkJIBb8mdQVSwOGgJA-5" value="制作JWT" style="rounded=1;whiteSpace=wrap;html=1;" vertex="1" parent="1">
                    <mxGeometry x="364" y="300" width="100" height="40" as="geometry"/>
                </mxCell>
                <mxCell id="DZlkJIBb8mdQVSwOGgJA-13" style="edgeStyle=none;html=1;entryX=0.5;entryY=0;entryDx=0;entryDy=0;" edge="1" parent="1" source="DZlkJIBb8mdQVSwOGgJA-6" target="DZlkJIBb8mdQVSwOGgJA-5">
                    <mxGeometry relative="1" as="geometry"/>
                </mxCell>
                <mxCell id="DZlkJIBb8mdQVSwOGgJA-6" value="获取用户ID" style="rounded=1;whiteSpace=wrap;html=1;" vertex="1" parent="1">
                    <mxGeometry x="364" y="210" width="100" height="40" as="geometry"/>
                </mxCell>
                <mxCell id="DZlkJIBb8mdQVSwOGgJA-8" value="异常退出" style="rounded=1;whiteSpace=wrap;html=1;" vertex="1" parent="1">
                    <mxGeometry x="550" y="210" width="100" height="40" as="geometry"/>
                </mxCell>
                <mxCell id="DZlkJIBb8mdQVSwOGgJA-12" style="edgeStyle=none;html=1;entryX=0.5;entryY=0;entryDx=0;entryDy=0;" edge="1" parent="1" source="DZlkJIBb8mdQVSwOGgJA-9" target="DZlkJIBb8mdQVSwOGgJA-6">
                    <mxGeometry relative="1" as="geometry"/>
                </mxCell>
                <mxCell id="DZlkJIBb8mdQVSwOGgJA-16" value="成功" style="edgeLabel;html=1;align=center;verticalAlign=middle;resizable=0;points=[];" vertex="1" connectable="0" parent="DZlkJIBb8mdQVSwOGgJA-12">
                    <mxGeometry x="-0.3" y="2" relative="1" as="geometry">
                        <mxPoint x="-2" as="offset"/>
                    </mxGeometry>
                </mxCell>
                <mxCell id="DZlkJIBb8mdQVSwOGgJA-15" style="edgeStyle=none;html=1;entryX=0.5;entryY=0;entryDx=0;entryDy=0;" edge="1" parent="1" source="DZlkJIBb8mdQVSwOGgJA-9" target="DZlkJIBb8mdQVSwOGgJA-8">
                    <mxGeometry relative="1" as="geometry">
                        <Array as="points">
                            <mxPoint x="600" y="140"/>
                        </Array>
                    </mxGeometry>
                </mxCell>
                <mxCell id="DZlkJIBb8mdQVSwOGgJA-17" value="失败" style="edgeLabel;html=1;align=center;verticalAlign=middle;resizable=0;points=[];" vertex="1" connectable="0" parent="DZlkJIBb8mdQVSwOGgJA-15">
                    <mxGeometry x="-0.4262" y="-4" relative="1" as="geometry">
                        <mxPoint x="3" y="-4" as="offset"/>
                    </mxGeometry>
                </mxCell>
                <mxCell id="DZlkJIBb8mdQVSwOGgJA-9" value="密码验证" style="rhombus;whiteSpace=wrap;html=1;" vertex="1" parent="1">
                    <mxGeometry x="359" y="110" width="110" height="60" as="geometry"/>
                </mxCell>
            </root>
        </mxGraphModel>
    </diagram>
    <diagram id="CraBovOX48ZVBW7k2d40" name="第 1 页">
        <mxGraphModel dx="1194" dy="514" grid="1" gridSize="10" guides="1" tooltips="1" connect="1" arrows="1" fold="1" page="1" pageScale="1" pageWidth="827" pageHeight="1169" math="0" shadow="0">
            <root>
                <mxCell id="0"/>
                <mxCell id="1" parent="0"/>
                <mxCell id="16" style="edgeStyle=none;html=1;entryX=0.5;entryY=0;entryDx=0;entryDy=0;" parent="1" source="2" target="5" edge="1">
                    <mxGeometry relative="1" as="geometry"/>
                </mxCell>
                <mxCell id="2" value="用户登录" style="rounded=1;whiteSpace=wrap;html=1;" parent="1" vertex="1">
                    <mxGeometry x="364" y="30" width="100" height="40" as="geometry"/>
                </mxCell>
                <mxCell id="18" style="edgeStyle=none;html=1;exitX=0.5;exitY=1;exitDx=0;exitDy=0;entryX=1;entryY=0.5;entryDx=0;entryDy=0;" parent="1" source="4" target="7" edge="1">
                    <mxGeometry relative="1" as="geometry">
                        <Array as="points">
                            <mxPoint x="570" y="210"/>
                        </Array>
                    </mxGeometry>
                </mxCell>
                <mxCell id="4" value="注册账户" style="rounded=1;whiteSpace=wrap;html=1;" parent="1" vertex="1">
                    <mxGeometry x="520" y="110" width="100" height="40" as="geometry"/>
                </mxCell>
                <mxCell id="17" style="edgeStyle=none;html=1;exitX=1;exitY=0.5;exitDx=0;exitDy=0;entryX=0;entryY=0.5;entryDx=0;entryDy=0;" parent="1" source="5" target="4" edge="1">
                    <mxGeometry relative="1" as="geometry">
                        <Array as="points"/>
                    </mxGeometry>
                </mxCell>
                <mxCell id="20" value="否" style="edgeLabel;html=1;align=center;verticalAlign=middle;resizable=0;points=[];" parent="17" vertex="1" connectable="0">
                    <mxGeometry x="-0.2288" relative="1" as="geometry">
                        <mxPoint as="offset"/>
                    </mxGeometry>
                </mxCell>
                <mxCell id="19" style="edgeStyle=none;html=1;entryX=0.5;entryY=0;entryDx=0;entryDy=0;" parent="1" edge="1">
                    <mxGeometry relative="1" as="geometry">
                        <mxPoint x="414" y="150" as="sourcePoint"/>
                        <mxPoint x="414" y="190" as="targetPoint"/>
                    </mxGeometry>
                </mxCell>
                <mxCell id="21" value="是" style="edgeLabel;html=1;align=center;verticalAlign=middle;resizable=0;points=[];" parent="19" vertex="1" connectable="0">
                    <mxGeometry x="-0.0667" y="1" relative="1" as="geometry">
                        <mxPoint as="offset"/>
                    </mxGeometry>
                </mxCell>
                <mxCell id="5" value="用户存在?" style="rhombus;whiteSpace=wrap;html=1;" parent="1" vertex="1">
                    <mxGeometry x="359" y="110" width="110" height="40" as="geometry"/>
                </mxCell>
                <mxCell id="24" style="edgeStyle=none;html=1;entryX=0.5;entryY=0;entryDx=0;entryDy=0;" parent="1" source="7" target="10" edge="1">
                    <mxGeometry relative="1" as="geometry">
                        <Array as="points">
                            <mxPoint x="260" y="210"/>
                        </Array>
                    </mxGeometry>
                </mxCell>
                <mxCell id="25" style="edgeStyle=none;html=1;entryX=0.5;entryY=0;entryDx=0;entryDy=0;" parent="1" source="7" target="9" edge="1">
                    <mxGeometry relative="1" as="geometry">
                        <Array as="points">
                            <mxPoint x="570" y="210"/>
                        </Array>
                    </mxGeometry>
                </mxCell>
                <mxCell id="7" value="进入主页面" style="rounded=1;whiteSpace=wrap;html=1;" parent="1" vertex="1">
                    <mxGeometry x="364" y="190" width="100" height="40" as="geometry"/>
                </mxCell>
                <mxCell id="27" style="edgeStyle=none;html=1;entryX=0.5;entryY=0;entryDx=0;entryDy=0;" parent="1" source="9" target="15" edge="1">
                    <mxGeometry relative="1" as="geometry">
                        <Array as="points">
                            <mxPoint x="500" y="330"/>
                        </Array>
                    </mxGeometry>
                </mxCell>
                <mxCell id="28" style="edgeStyle=none;html=1;entryX=0.5;entryY=0;entryDx=0;entryDy=0;" parent="1" source="9" target="14" edge="1">
                    <mxGeometry relative="1" as="geometry">
                        <Array as="points">
                            <mxPoint x="660" y="330"/>
                        </Array>
                    </mxGeometry>
                </mxCell>
                <mxCell id="9" value="个人中心" style="rounded=1;whiteSpace=wrap;html=1;" parent="1" vertex="1">
                    <mxGeometry x="520" y="260" width="100" height="40" as="geometry"/>
                </mxCell>
                <mxCell id="26" style="edgeStyle=none;html=1;entryX=0.5;entryY=0;entryDx=0;entryDy=0;" parent="1" source="10" target="12" edge="1">
                    <mxGeometry relative="1" as="geometry"/>
                </mxCell>
                <mxCell id="10" value="筛选查找电影" style="rounded=1;whiteSpace=wrap;html=1;" parent="1" vertex="1">
                    <mxGeometry x="210" y="260" width="100" height="40" as="geometry"/>
                </mxCell>
                <mxCell id="12" value="用户登录" style="rounded=1;whiteSpace=wrap;html=1;" parent="1" vertex="1">
                    <mxGeometry x="210" y="390" width="100" height="40" as="geometry"/>
                </mxCell>
                <mxCell id="14" value="删除影评" style="rounded=1;whiteSpace=wrap;html=1;" parent="1" vertex="1">
                    <mxGeometry x="610" y="390" width="100" height="40" as="geometry"/>
                </mxCell>
                <mxCell id="15" value="修改个人资料" style="rounded=1;whiteSpace=wrap;html=1;" parent="1" vertex="1">
                    <mxGeometry x="450" y="390" width="100" height="40" as="geometry"/>
                </mxCell>
            </root>
        </mxGraphModel>
    </diagram>
    <diagram id="Hw1_idB9E9f0pSQzSRwm" name="第 4 页">
        <mxGraphModel dx="1194" dy="514" grid="1" gridSize="10" guides="1" tooltips="1" connect="1" arrows="1" fold="1" page="1" pageScale="1" pageWidth="827" pageHeight="1169" math="0" shadow="0">
            <root>
                <mxCell id="0"/>
                <mxCell id="1" parent="0"/>
            </root>
        </mxGraphModel>
    </diagram>
</mxfile>